<?xml version="1.0" encoding="UTF-8" standalone="no"?>
<svg
   xmlns:dc="http://purl.org/dc/elements/1.1/"
   xmlns:cc="http://creativecommons.org/ns#"
   xmlns:rdf="http://www.w3.org/1999/02/22-rdf-syntax-ns#"
   xmlns:svg="http://www.w3.org/2000/svg"
   xmlns="http://www.w3.org/2000/svg"
   xmlns:sodipodi="http://sodipodi.sourceforge.net/DTD/sodipodi-0.dtd"
   xmlns:inkscape="http://www.inkscape.org/namespaces/inkscape"
   width="159.63371"
   height="46.574856"
   viewBox="0 0 150.9324 26.977438"
   version="1.0"
   id="svg2"
   sodipodi:version="0.32"
   inkscape:version="0.92pre2 r"
   sodipodi:docname="koha-logo.svg"
   inkscape:output_extension="org.inkscape.output.svg.inkscape">
  <metadata
     id="metadata119">
    <rdf:RDF>
      <cc:Work
         rdf:about="">
        <dc:format>image/svg+xml</dc:format>
        <dc:type
           rdf:resource="http://purl.org/dc/dcmitype/StillImage" />
        <dc:title></dc:title>
      </cc:Work>
    </rdf:RDF>
  </metadata>
  <sodipodi:namedview
     inkscape:window-height="737"
     inkscape:window-width="1280"
     inkscape:pageshadow="2"
     inkscape:pageopacity="0"
     guidetolerance="10.0"
     gridtolerance="10.0"
     objecttolerance="10.0"
     borderopacity="1.0"
     bordercolor="#666666"
     pagecolor="#00ffff"
     id="base"
     showgrid="false"
     inkscape:zoom="2.0323051"
     inkscape:cx="78.861662"
     inkscape:cy="2.9020781"
     inkscape:window-x="0"
     inkscape:window-y="0"
     inkscape:current-layer="g2618"
     fit-margin-top="0"
     fit-margin-left="0"
     fit-margin-right="0"
     fit-margin-bottom="0"
     inkscape:window-maximized="1" />
  <defs
     id="defs4">
    <inkscape:perspective
       sodipodi:type="inkscape:persp3d"
       inkscape:vp_x="0 : 269.375 : 1"
       inkscape:vp_y="0 : 1000 : 0"
       inkscape:vp_z="1243.75 : 269.375 : 1"
       inkscape:persp3d-origin="621.87502 : 179.58333 : 1"
       id="perspective121" />
    <clipPath
       id="clip0">
      <rect
         width="995"
         height="431"
         id="rect7"
         x="0"
         y="0" />
    </clipPath>
    <inkscape:perspective
       id="perspective2612"
       inkscape:persp3d-origin="372.04726 : 350.78739 : 1"
       inkscape:vp_z="744.09451 : 526.18109 : 1"
       inkscape:vp_y="0 : 1000 : 0"
       inkscape:vp_x="0 : 526.18109 : 1"
       sodipodi:type="inkscape:persp3d" />
  </defs>
  <g
     id="g4506"
     transform="translate(-44.945245,120.25963)">
    <g
       transform="matrix(0.1730485,0,0,0.1766524,44.945244,-137.99923)"
       id="g2618">
      <path
         inkscape:connector-curvature="0"
         id="path14"
         d="M 93.035919,63.929321 C 105.82234,56.815948 120.33511,52.741013 134.95119,52.13765 c 7.69851,0.371963 15.44307,1.581314 22.68149,4.322265 14.27507,5.346131 26.08657,16.282044 33.47027,29.516922 8.17992,13.534195 11.80069,29.274883 13.51557,44.843563 3.78038,51.55484 -15.3129,103.33382 -47.88361,142.96314 -12.81362,12.79645 -28.59325,23.6672 -46.69515,26.99803 -14.978176,2.14404 -31.19569,-1.06154 -43.241084,-10.51166 -7.460419,-5.64074 -10.478394,-15.43199 -9.852524,-24.49249 6.622238,9.35092 17.456009,15.82846 29.033432,16.09088 10.482223,0.50025 20.894376,-4.28937 27.950636,-11.93358 11.84444,-12.7875 13.03389,-34.36049 1.91654,-47.96585 -5.08524,-5.90526 -11.00025,-11.20161 -17.878025,-14.9364 -6.903687,-4.07287 -14.879578,-5.84799 -22.742722,-6.90381 -14.547149,-0.93083 -29.625397,1.70596 -42.434097,8.86221 C 20.375305,216.02243 11.25116,228.55006 8.407715,242.53528 5.486984,253.39414 6.548477,264.75449 7.702728,275.7858 2.939728,263.16989 1.02951,249.75554 0,236.38074 v -9.75518 C 1.675018,177.7271 22.040985,130.02357 54.811737,93.876007 66.07251,82.209015 78.635376,71.524826 93.035919,63.929321 Z"
         style="fill:#000000;fill-opacity:1;stroke:none;stroke-width:0.1;stroke-linecap:butt;stroke-linejoin:miter;stroke-miterlimit:10;stroke-opacity:1" />
      <path
         inkscape:connector-curvature="0"
         id="path16"
         d="M 93.035919,63.929321 C 105.82234,56.815948 120.33511,52.741013 134.95119,52.13765 c 7.69851,0.371963 15.44307,1.581314 22.68149,4.322265 14.27507,5.346131 26.08657,16.282044 33.47027,29.516922 8.17992,13.534195 11.80069,29.274883 13.51557,44.843563 3.78038,51.55484 -15.3129,103.33382 -47.88361,142.96314 -12.81362,12.79645 -28.59325,23.6672 -46.69515,26.99803 -14.978176,2.14404 -31.19569,-1.06154 -43.241084,-10.51166 -7.460419,-5.64074 -10.478394,-15.43199 -9.852524,-24.49249 6.622238,9.35092 17.456009,15.82846 29.033432,16.09088 10.482223,0.50025 20.894376,-4.28937 27.950636,-11.93358 11.84444,-12.7875 13.03389,-34.36049 1.91654,-47.96585 -5.08524,-5.90526 -11.00025,-11.20161 -17.878025,-14.9364 -6.903687,-4.07287 -14.879578,-5.84799 -22.742722,-6.90381 -14.547149,-0.93083 -29.625397,1.70596 -42.434097,8.86221 C 20.375305,216.02243 11.25116,228.55006 8.407715,242.53528 5.486984,253.39414 6.548477,264.75449 7.702728,275.7858 2.939728,263.16989 1.02951,249.75554 0,236.38074 v -9.75518 C 1.675018,177.7271 22.040985,130.02357 54.811737,93.876007 66.07251,82.209015 78.635376,71.524826 93.035919,63.929321 Z"
         style="fill:#ffffff;fill-opacity:1;fill-rule:nonzero;stroke:none;stroke-opacity:1" />
      <path
         inkscape:connector-curvature="0"
         id="path18"
         d="m 262.5504,73.017014 c 17.16711,0.357864 34.46834,-0.07999 51.2047,-4.328965 -12.50658,44.014221 -25.34475,87.934881 -37.92801,131.927601 1.5023,-1.04569 2.93295,-2.19129 4.31784,-3.38961 15.52855,-13.84727 30.5321,-28.2796 46.29011,-41.87056 7.28193,-6.04101 14.78057,-12.76083 24.3579,-14.65728 4.38099,-1.07059 9.55049,-0.8133 12.97833,2.4492 7.9393,7.04172 7.13632,20.97525 -0.85088,27.69092 -4.19079,3.87616 -10.52383,4.45271 -15.83674,3.01018 -4.4523,-1.09998 -6.71874,-5.52884 -10.57321,-7.63236 -6.12981,-0.20888 -11.39176,3.78198 -16.00077,7.37587 -9.66268,8.05183 -18.97822,16.51912 -28.68583,24.5163 -0.22705,1.27301 1.0515,2.35182 1.48527,3.51866 9.71472,17.32281 19.31038,34.71286 29.02066,52.03825 3.44182,5.68166 7.00342,11.68727 12.6514,15.44892 3.09161,2.19947 7.47475,1.67373 10.25928,-0.77816 5.07406,-4.36757 8.88171,-10.12077 11.34265,-16.32449 2.9485,-0.0156 5.89918,-0.0228 8.85321,0.009 -3.89864,9.94538 -8.39513,19.86808 -15.39639,28.05582 -4.85019,6.02309 -11.93932,11.1944 -19.99523,10.9679 -6.83462,0.2684 -13.11601,-3.58455 -17.58436,-8.48302 -7.24207,-8.239 -12.23658,-18.08417 -17.5849,-27.57779 -7.65027,-13.56262 -15.20215,-27.17992 -22.83109,-40.75383 -6.83589,24.0609 -13.19433,48.2576 -20.14073,72.28767 -8.00597,-0.0357 -16.0112,-0.003 -24.01588,-0.0184 15.83445,-56.15518 31.40916,-112.38345 47.18362,-168.55559 2.4245,-9.22111 5.96382,-18.387417 5.78815,-28.057538 0.1239,-3.535232 -2.18952,-7.129135 -5.77794,-7.839981 -4.85162,-1.085556 -9.88251,-0.338379 -14.8056,-0.520401 0.77262,-2.832245 1.53384,-5.667343 2.27444,-8.508056 z"
         style="fill:#000000;fill-opacity:1;stroke:none;stroke-width:0.1;stroke-linecap:butt;stroke-linejoin:miter;stroke-miterlimit:10;stroke-opacity:1" />
      <path
         inkscape:connector-curvature="0"
         id="path20"
         d="m 262.5504,73.017014 c 17.16711,0.357864 34.46834,-0.07999 51.2047,-4.328965 -12.50658,44.014221 -25.34475,87.934881 -37.92801,131.927601 1.5023,-1.04569 2.93295,-2.19129 4.31784,-3.38961 15.52855,-13.84727 30.5321,-28.2796 46.29011,-41.87056 7.28193,-6.04101 14.78057,-12.76083 24.3579,-14.65728 4.38099,-1.07059 9.55049,-0.8133 12.97833,2.4492 7.9393,7.04172 7.13632,20.97525 -0.85088,27.69092 -4.19079,3.87616 -10.52383,4.45271 -15.83674,3.01018 -4.4523,-1.09998 -6.71874,-5.52884 -10.57321,-7.63236 -6.12981,-0.20888 -11.39176,3.78198 -16.00077,7.37587 -9.66268,8.05183 -18.97822,16.51912 -28.68583,24.5163 -0.22705,1.27301 1.0515,2.35182 1.48527,3.51866 9.71472,17.32281 19.31038,34.71286 29.02066,52.03825 3.44182,5.68166 7.00342,11.68727 12.6514,15.44892 3.09161,2.19947 7.47475,1.67373 10.25928,-0.77816 5.07406,-4.36757 8.88171,-10.12077 11.34265,-16.32449 2.9485,-0.0156 5.89918,-0.0228 8.85321,0.009 -3.89864,9.94538 -8.39513,19.86808 -15.39639,28.05582 -4.85019,6.02309 -11.93932,11.1944 -19.99523,10.9679 -6.83462,0.2684 -13.11601,-3.58455 -17.58436,-8.48302 -7.24207,-8.239 -12.23658,-18.08417 -17.5849,-27.57779 -7.65027,-13.56262 -15.20215,-27.17992 -22.83109,-40.75383 -6.83589,24.0609 -13.19433,48.2576 -20.14073,72.28767 -8.00597,-0.0357 -16.0112,-0.003 -24.01588,-0.0184 15.83445,-56.15518 31.40916,-112.38345 47.18362,-168.55559 2.4245,-9.22111 5.96382,-18.387417 5.78815,-28.057538 0.1239,-3.535232 -2.18952,-7.129135 -5.77794,-7.839981 -4.85162,-1.085556 -9.88251,-0.338379 -14.8056,-0.520401 0.77262,-2.832245 1.53384,-5.667343 2.27444,-8.508056 z"
         style="fill:#ffffff;fill-opacity:1;fill-rule:nonzero;stroke:none;stroke-opacity:1" />
      <path
         inkscape:connector-curvature="0"
         id="path22"
         d="m 586.52339,73.056549 c 17.06754,0.204987 34.3208,0.112534 50.9267,-4.384827 -9.96628,36.359548 -20.67064,72.519038 -30.62842,108.880648 8.54486,-11.52364 17.78012,-23.11244 30.42345,-30.36971 9.42576,-5.56022 20.81715,-8.46925 31.69472,-6.32536 7.77035,1.47885 14.96881,6.53853 18.29801,13.81372 2.72725,5.67262 2.98297,12.15848 2.27404,18.31413 -1.65161,16.557 -8.56861,31.86139 -14.01532,47.39869 -4.73079,13.03379 -9.77063,25.96134 -14.1104,39.13302 -1.48932,5.19127 -3.58966,10.69306 -2.10222,16.12387 1.23245,3.8969 6.14569,4.26224 9.39189,2.91815 3.37586,-1.6893 6.43033,-4.13095 8.63014,-7.22088 4.75071,-6.13648 8.82402,-12.93067 10.75652,-20.51148 3.18529,0.006 6.37251,0.0109 9.56769,-0.0154 -2.89116,12.97034 -9.59454,25.36475 -20.16429,33.63176 -7.77216,6.16856 -18.62857,8.35893 -28.09658,5.2585 -8.13734,-2.78657 -13.27632,-11.2778 -13.52264,-19.64827 -0.57355,-8.81634 2.30632,-17.32288 4.80739,-25.64565 4.80403,-14.4517 10.5336,-28.57385 15.80003,-42.85958 5.06948,-13.0325 10.37126,-26.48674 10.38524,-40.67845 0.0642,-4.0051 -2.74872,-7.81981 -6.75195,-8.56099 -9.56964,-1.66855 -19.18067,2.41291 -26.58286,8.27285 -10.46634,8.27718 -18.14909,19.53694 -24.4624,31.16281 -10.02873,17.06908 -16.1693,36.05249 -21.37074,55.05485 -3.80376,13.23382 -7.52835,26.48989 -11.40752,39.70178 -8.12668,0.002 -16.25159,4.5e-4 -24.37518,8.4e-4 11.40295,-40.5 22.56652,-81.06734 33.91197,-121.58348 5.93393,-21.74144 12.25964,-43.37662 17.93472,-65.187596 0.9194,-4.556442 3.05184,-9.284088 1.35704,-13.921295 -0.39239,-2.463471 -2.88699,-3.658539 -5.12265,-3.897827 -5.3009,-0.814392 -10.68861,-0.257996 -16.02328,-0.39589 0.93161,-2.796524 1.76822,-5.623596 2.5769,-8.458923 z"
         style="fill:#000000;fill-opacity:1;stroke:none;stroke-width:0.1;stroke-linecap:butt;stroke-linejoin:miter;stroke-miterlimit:10;stroke-opacity:1" />
      <path
         inkscape:connector-curvature="0"
         id="path24"
         d="m 586.52339,73.056549 c 17.06754,0.204987 34.3208,0.112534 50.9267,-4.384827 -9.96628,36.359548 -20.67064,72.519038 -30.62842,108.880648 8.54486,-11.52364 17.78012,-23.11244 30.42345,-30.36971 9.42576,-5.56022 20.81715,-8.46925 31.69472,-6.32536 7.77035,1.47885 14.96881,6.53853 18.29801,13.81372 2.72725,5.67262 2.98297,12.15848 2.27404,18.31413 -1.65161,16.557 -8.56861,31.86139 -14.01532,47.39869 -4.73079,13.03379 -9.77063,25.96134 -14.1104,39.13302 -1.48932,5.19127 -3.58966,10.69306 -2.10222,16.12387 1.23245,3.8969 6.14569,4.26224 9.39189,2.91815 3.37586,-1.6893 6.43033,-4.13095 8.63014,-7.22088 4.75071,-6.13648 8.82402,-12.93067 10.75652,-20.51148 3.18529,0.006 6.37251,0.0109 9.56769,-0.0154 -2.89116,12.97034 -9.59454,25.36475 -20.16429,33.63176 -7.77216,6.16856 -18.62857,8.35893 -28.09658,5.2585 -8.13734,-2.78657 -13.27632,-11.2778 -13.52264,-19.64827 -0.57355,-8.81634 2.30632,-17.32288 4.80739,-25.64565 4.80403,-14.4517 10.5336,-28.57385 15.80003,-42.85958 5.06948,-13.0325 10.37126,-26.48674 10.38524,-40.67845 0.0642,-4.0051 -2.74872,-7.81981 -6.75195,-8.56099 -9.56964,-1.66855 -19.18067,2.41291 -26.58286,8.27285 -10.46634,8.27718 -18.14909,19.53694 -24.4624,31.16281 -10.02873,17.06908 -16.1693,36.05249 -21.37074,55.05485 -3.80376,13.23382 -7.52835,26.48989 -11.40752,39.70178 -8.12668,0.002 -16.25159,4.5e-4 -24.37518,8.4e-4 11.40295,-40.5 22.56652,-81.06734 33.91197,-121.58348 5.93393,-21.74144 12.25964,-43.37662 17.93472,-65.187596 0.9194,-4.556442 3.05184,-9.284088 1.35704,-13.921295 -0.39239,-2.463471 -2.88699,-3.658539 -5.12265,-3.897827 -5.3009,-0.814392 -10.68861,-0.257996 -16.02328,-0.39589 0.93161,-2.796524 1.76822,-5.623596 2.5769,-8.458923 z"
         style="fill:#ffffff;fill-opacity:1;fill-rule:nonzero;stroke:none;stroke-opacity:1" />
      <path
         inkscape:connector-curvature="0"
         id="path26"
         d="m 465.58113,140.61339 c 12.53914,-1.5412 26.11437,0.49693 36.39543,8.26468 11.2867,8.63255 18.01403,22.20826 19.92653,36.12535 2.48027,17.87564 0.0679,36.43342 -6.68693,53.16104 -4.93265,11.87297 -12.24501,22.68909 -21.15857,31.93301 -10.39446,10.13242 -23.58432,17.74562 -38.06473,19.93184 -12.08757,2.01405 -25.31526,1.55724 -36.05292,-4.96503 -13.21196,-7.91648 -21.14651,-22.55258 -23.40918,-37.50514 -3.02147,-20.43414 0.25173,-41.83496 9.68759,-60.25505 8.13854,-15.65287 19.52469,-30.28851 35.14769,-39.01475 7.47322,-4.09876 15.73003,-6.77089 24.21509,-7.67595 z"
         style="fill:none;fill-opacity:1;stroke:none;stroke-width:0.1;stroke-linecap:butt;stroke-linejoin:miter;stroke-miterlimit:10;stroke-opacity:1" />
      <path
         style="fill:#ffffff;fill-opacity:1;fill-rule:nonzero;stroke:none;stroke-width:0.18492083;stroke-opacity:1"
         d="m 134.49414,16.455078 c -0.58506,-0.01788 -1.1704,0.012 -1.74414,0.08398 -1.55298,0.1691 -3.06581,0.669749 -4.43359,1.435547 -2.8594,1.63038 -4.94209,4.364536 -6.43164,7.289063 -1.727,3.441545 -2.32645,7.439969 -1.77344,11.257812 0.41412,2.793684 1.86704,5.528726 4.28515,7.007813 1.96526,1.218598 4.38534,1.304032 6.59766,0.927734 2.65028,-0.408465 5.06435,-1.831503 6.9668,-3.724609 1.6314,-1.727102 2.97025,-3.748493 3.87304,-5.966797 1.23631,-3.12533 1.67661,-6.591819 1.22266,-9.931641 -0.35003,-2.60022 -1.58074,-5.137124 -3.64648,-6.75 -1.41127,-1.088474 -3.16083,-1.575257 -4.91602,-1.628906 z M 134.52539,18 c 0.20788,0.0019 0.41301,0.02126 0.61719,0.05078 0.0588,0.0085 0.11561,0.02225 0.17383,0.0332 0.14556,0.02738 0.28895,0.06178 0.42968,0.105469 0.0654,0.0203 0.12931,0.04239 0.19336,0.06641 0.13542,0.05076 0.26635,0.11144 0.39453,0.179688 0.055,0.02926 0.11067,0.05527 0.16407,0.08789 0.17745,0.108363 0.34884,0.231123 0.50586,0.378906 0.14186,0.13359 0.27072,0.275917 0.38867,0.425781 0.23582,0.299641 0.42676,0.628245 0.58203,0.976563 0.0776,0.174158 0.14571,0.352888 0.20703,0.535156 0.24606,0.72996 0.37079,1.512551 0.45703,2.263672 0.0304,0.437976 0.0488,0.87613 0.0547,1.314453 0.006,0.438921 6e-5,0.876122 -0.0176,1.314453 -0.0352,0.875365 -0.11585,1.749497 -0.23828,2.617187 -0.0612,0.433846 -0.13349,0.866277 -0.21484,1.296875 -0.24376,1.292116 -0.57508,2.567834 -0.98047,3.814454 -0.5795,1.715773 -1.24033,3.42378 -2.13086,4.998046 -4.3e-4,7.61e-4 -0.002,0.0012 -0.002,0.002 -0.14803,0.261577 -0.30151,0.519867 -0.4629,0.773437 -0.1623,0.25515 -0.33061,0.504181 -0.50781,0.75 -0.13628,0.192754 -0.2813,0.38026 -0.43359,0.5625 -3.3e-4,3.97e-4 3.3e-4,0.0016 0,0.002 -0.0723,0.08649 -0.15279,0.166306 -0.22852,0.25 -0.0838,0.09262 -0.16409,0.188506 -0.25195,0.277344 -0.66855,0.676598 -1.45193,1.237675 -2.31641,1.601562 -0.2162,0.09097 -0.43829,0.169402 -0.66406,0.234375 -0.22513,0.06473 -0.45583,0.116043 -0.68945,0.152344 -1.08165,0.160596 -2.286,-0.0015 -3.17578,-0.677734 -3.9e-4,-2.91e-4 -0.002,2.91e-4 -0.002,0 -0.12713,-0.09672 -0.24642,-0.203971 -0.35937,-0.322266 -0.14863,-0.144021 -0.28197,-0.297301 -0.40235,-0.458984 -0.12016,-0.161211 -0.22681,-0.330166 -0.32226,-0.50586 -0.5723,-1.054025 -0.73058,-2.340437 -0.83594,-3.52539 -0.088,-1.966347 0.0696,-3.936365 0.43359,-5.867188 0.27301,-1.448116 0.66278,-2.874426 1.15235,-4.261719 0.16319,-0.462456 0.33663,-0.919967 0.52148,-1.373046 0.73587,-1.85907 1.60232,-3.695085 2.83985,-5.265625 0.92792,-1.147361 2.0955,-2.170103 3.52148,-2.585938 0.30411,-0.08527 0.62402,-0.141125 0.94727,-0.177734 0.21707,-0.02475 0.43379,-0.04496 0.65234,-0.04297 z"
         transform="matrix(5.4637399,0,0,5.3522737,-259.72629,52.087591)"
         id="path28"
         inkscape:connector-curvature="0" />
      <path
         inkscape:connector-curvature="0"
         id="path30"
         d="m 758.09482,157.04572 c 10.01976,-10.02568 23.65037,-16.57372 37.93048,-16.90047 9.26009,-0.49942 18.82355,2.77109 25.29217,9.53952 6.88277,6.63049 10.90699,16.002 11.05109,25.55731 2.68408,-10.2093 5.85742,-20.28555 8.7955,-30.42508 8.15198,0.0363 16.30616,-0.005 24.46282,0.0242 -9.43731,33.39147 -19.10892,66.71456 -28.56867,100.09954 -2.56215,9.02863 -4.17447,18.46331 -3.40367,27.86773 0.34842,3.19853 1.62552,7.30664 5.17168,8.16208 5.22961,0.84323 8.74446,-4.00014 11.78572,-7.45116 5.51843,-7.7661 10.53329,-16.15576 12.92718,-25.45995 2.87917,-0.0593 5.76485,-0.0822 8.65799,-0.0597 -3.11416,10.57874 -7.76381,20.86323 -14.75836,29.46253 -4.29518,5.52921 -9.85245,10.40458 -16.62572,12.54947 -7.18539,2.35445 -15.92961,1.01993 -21.07856,-4.84361 -5.39171,-6.41512 -6.79335,-15.06096 -7.30977,-23.16811 -8.34601,12.40358 -20.0851,23.4375 -34.80879,27.46102 -10.50948,2.79368 -22.69167,2.37068 -31.68895,-4.33957 -10.9845,-8.35069 -16.38256,-21.96155 -18.46723,-35.21893 -2.34164,-17.21886 -0.61882,-35.01293 5.18356,-51.40587 5.73171,-15.23564 13.87862,-29.86878 25.45153,-41.45091 z"
         style="fill:none;fill-opacity:1;stroke:none;stroke-width:0.1;stroke-linecap:butt;stroke-linejoin:miter;stroke-miterlimit:10;stroke-opacity:1" />
      <path
         style="fill:#ffffff;fill-opacity:1;fill-rule:nonzero;stroke:none;stroke-width:0.18492083;stroke-opacity:1"
         d="m 193.86523,16.451172 c -0.21237,-0.01025 -0.42486,-0.0097 -0.63671,0.002 -2.61362,0.06105 -5.10755,1.283087 -6.94141,3.15625 -2.11813,2.163964 -3.60916,4.89952 -4.6582,7.746094 -1.06198,3.062799 -1.3778,6.386404 -0.94922,9.603515 0.38154,2.476963 1.36847,5.019865 3.3789,6.580078 1.64673,1.253721 3.87728,1.332509 5.80079,0.810547 2.6948,-0.75174 4.84356,-2.813418 6.37109,-5.130859 0.0945,1.514711 0.35107,3.1315 1.33789,4.330078 0.94239,1.095523 2.54232,1.344194 3.85742,0.904297 1.23968,-0.400744 2.25685,-1.312645 3.04297,-2.345703 1.28018,-1.606663 2.1312,-3.527412 2.70117,-5.503906 -0.52951,-0.0042 -1.05702,6.39e-4 -1.58398,0.01172 -0.43814,1.738363 -1.35718,3.304869 -2.36719,4.75586 -0.55663,0.644776 -1.1991,1.550124 -2.15625,1.392578 -0.64904,-0.159828 -0.8835,-0.927789 -0.94727,-1.525391 -0.14107,-1.757089 0.15411,-3.520154 0.62305,-5.207031 1.73137,-6.237532 3.50125,-12.462427 5.22852,-18.701172 -1.49287,-0.0055 -2.98455,0.0029 -4.47657,-0.0039 -0.53774,1.894434 -1.11812,3.776124 -1.60937,5.683594 -0.0264,-1.785281 -0.76372,-3.536574 -2.02344,-4.775391 -1.03593,-1.106516 -2.50557,-1.711465 -3.99219,-1.783203 z m 0.16016,2.201172 c 0.27574,-0.0088 0.55071,0.0134 0.82227,0.05469 0.18773,0.02853 0.37421,0.06159 0.55468,0.117188 0.1966,0.06056 0.38375,0.144426 0.56641,0.240234 0.0422,0.0221 0.0837,0.04427 0.125,0.06836 0.18119,0.105826 0.35583,0.224876 0.51563,0.371094 0.28437,0.261812 0.52004,0.559372 0.71679,0.88086 0.59026,0.964464 0.82789,2.148348 0.95703,3.267578 0.10568,1.213131 0.10487,2.427942 0.01,3.634765 -0.0951,1.206824 -0.28491,2.405279 -0.55664,3.585938 -0.54346,2.361317 -1.41646,4.651548 -2.52149,6.789062 -0.25223,0.470322 -0.52791,0.940173 -0.83203,1.392579 -0.30411,0.452405 -0.63641,0.887377 -1.00195,1.285156 -0.36554,0.397636 -0.76465,0.758119 -1.20117,1.064453 -0.43615,0.306008 -0.91122,0.558123 -1.42774,0.736328 -0.31484,0.107299 -0.64664,0.191016 -0.98437,0.244141 -0.16829,0.02636 -0.33947,0.0462 -0.50977,0.05664 -0.34188,0.02097 -0.68445,0.0081 -1.01953,-0.04492 -0.50262,-0.07959 -0.98649,-0.24997 -1.41797,-0.533203 -0.16709,-0.107728 -0.31834,-0.23039 -0.45508,-0.363281 -0.13745,-0.133589 -0.26097,-0.277068 -0.37109,-0.431641 -0.43968,-0.617192 -0.67389,-1.383791 -0.81055,-2.158203 -0.0684,-0.38697 -0.11207,-0.775339 -0.14453,-1.148437 -0.0315,-0.693964 -0.0297,-1.386886 0,-2.080078 0.0297,-0.69237 0.0865,-1.382024 0.16992,-2.070313 0.0832,-0.687886 0.19283,-1.374063 0.32227,-2.054687 1.2e-4,-6.25e-4 -1.2e-4,-0.0013 0,-0.002 0.1296,-0.681248 0.28071,-1.356627 0.44922,-2.027344 0.58265,-2.110772 1.26347,-4.236576 2.28515,-6.173828 0.34057,-0.645751 0.71953,-1.270557 1.14454,-1.867188 0.45406,-0.63396 0.99544,-1.225764 1.61523,-1.703125 0.30979,-0.238746 0.63895,-0.448146 0.98633,-0.621094 0.34745,-0.172898 0.71326,-0.309075 1.0957,-0.398437 0.2984,-0.06335 0.60736,-0.101371 0.91797,-0.111328 z"
         transform="matrix(5.4637399,0,0,5.3522737,-259.72629,52.087591)"
         id="path32"
         inkscape:connector-curvature="0" />
    </g>
  </g>
</svg>
