<?xml version="1.0" encoding="UTF-8" standalone="no"?>
<svg
   xmlns:dc="http://purl.org/dc/elements/1.1/"
   xmlns:cc="http://creativecommons.org/ns#"
   xmlns:rdf="http://www.w3.org/1999/02/22-rdf-syntax-ns#"
   xmlns:svg="http://www.w3.org/2000/svg"
   xmlns="http://www.w3.org/2000/svg"
   xmlns:sodipodi="http://sodipodi.sourceforge.net/DTD/sodipodi-0.dtd"
   xmlns:inkscape="http://www.inkscape.org/namespaces/inkscape"
   width="255.8671"
   height="87.364258"
   viewBox="0 0 241.92029 50.603782"
   version="1.0"
   id="svg2"
   sodipodi:version="0.32"
   inkscape:version="0.92pre2 r"
   sodipodi:docname="koha-logo-with-byline.svg"
   inkscape:output_extension="org.inkscape.output.svg.inkscape">
  <metadata
     id="metadata119">
    <rdf:RDF>
      <cc:Work
         rdf:about="">
        <dc:format>image/svg+xml</dc:format>
        <dc:type
           rdf:resource="http://purl.org/dc/dcmitype/StillImage" />
        <dc:title></dc:title>
      </cc:Work>
    </rdf:RDF>
  </metadata>
  <sodipodi:namedview
     inkscape:window-height="737"
     inkscape:window-width="1280"
     inkscape:pageshadow="2"
     inkscape:pageopacity="0"
     guidetolerance="10.0"
     gridtolerance="10.0"
     objecttolerance="10.0"
     borderopacity="1.0"
     bordercolor="#666666"
     pagecolor="#00ffff"
     id="base"
     showgrid="false"
     inkscape:zoom="2.0323051"
     inkscape:cx="102.70134"
     inkscape:cy="43.682129"
     inkscape:window-x="0"
     inkscape:window-y="0"
     inkscape:current-layer="g4506"
     fit-margin-top="0"
     fit-margin-left="0"
     fit-margin-right="0"
     fit-margin-bottom="0"
     inkscape:window-maximized="1" />
  <defs
     id="defs4">
    <inkscape:perspective
       sodipodi:type="inkscape:persp3d"
       inkscape:vp_x="0 : 269.375 : 1"
       inkscape:vp_y="0 : 1000 : 0"
       inkscape:vp_z="1243.75 : 269.375 : 1"
       inkscape:persp3d-origin="621.87501 : 179.58333 : 1"
       id="perspective121" />
    <clipPath
       id="clip0">
      <rect
         width="995"
         height="431"
         id="rect7"
         x="0"
         y="0" />
    </clipPath>
    <inkscape:perspective
       id="perspective2612"
       inkscape:persp3d-origin="372.04725 : 350.78739 : 1"
       inkscape:vp_z="744.09449 : 526.18109 : 1"
       inkscape:vp_y="0 : 1000 : 0"
       inkscape:vp_x="0 : 526.18109 : 1"
       sodipodi:type="inkscape:persp3d" />
  </defs>
  <g
     id="g4506"
     transform="translate(0,120.26847)">
    <g
       transform="matrix(0.1730485,0,0,0.1766524,44.945245,-145.46908)"
       id="g2618">
      <path
         inkscape:connector-curvature="0"
         id="path14"
         d="M 93.035919,63.929321 C 105.82234,56.815948 120.33511,52.741013 134.95119,52.13765 c 7.69851,0.371963 15.44307,1.581314 22.68149,4.322265 14.27507,5.346131 26.08657,16.282044 33.47027,29.516922 8.17992,13.534195 11.80069,29.274883 13.51557,44.843563 3.78038,51.55484 -15.3129,103.33382 -47.88361,142.96314 -12.81362,12.79645 -28.59325,23.6672 -46.69515,26.99803 -14.978176,2.14404 -31.19569,-1.06154 -43.241084,-10.51166 -7.460419,-5.64074 -10.478394,-15.43199 -9.852524,-24.49249 6.622238,9.35092 17.456009,15.82846 29.033432,16.09088 10.482223,0.50025 20.894376,-4.28937 27.950636,-11.93358 11.84444,-12.7875 13.03389,-34.36049 1.91654,-47.96585 -5.08524,-5.90526 -11.00025,-11.20161 -17.878025,-14.9364 -6.903687,-4.07287 -14.879578,-5.84799 -22.742722,-6.90381 -14.547149,-0.93083 -29.625397,1.70596 -42.434097,8.86221 C 20.375305,216.02243 11.25116,228.55006 8.407715,242.53528 5.486984,253.39414 6.548477,264.75449 7.702728,275.7858 2.939728,263.16989 1.02951,249.75554 0,236.38074 v -9.75518 C 1.675018,177.7271 22.040985,130.02357 54.811737,93.876007 66.07251,82.209015 78.635376,71.524826 93.035919,63.929321 Z"
         style="fill:none;stroke:#000000;stroke-width:0.1;stroke-linecap:butt;stroke-linejoin:miter;stroke-miterlimit:10" />
      <path
         inkscape:connector-curvature="0"
         id="path16"
         d="M 93.035919,63.929321 C 105.82234,56.815948 120.33511,52.741013 134.95119,52.13765 c 7.69851,0.371963 15.44307,1.581314 22.68149,4.322265 14.27507,5.346131 26.08657,16.282044 33.47027,29.516922 8.17992,13.534195 11.80069,29.274883 13.51557,44.843563 3.78038,51.55484 -15.3129,103.33382 -47.88361,142.96314 -12.81362,12.79645 -28.59325,23.6672 -46.69515,26.99803 -14.978176,2.14404 -31.19569,-1.06154 -43.241084,-10.51166 -7.460419,-5.64074 -10.478394,-15.43199 -9.852524,-24.49249 6.622238,9.35092 17.456009,15.82846 29.033432,16.09088 10.482223,0.50025 20.894376,-4.28937 27.950636,-11.93358 11.84444,-12.7875 13.03389,-34.36049 1.91654,-47.96585 -5.08524,-5.90526 -11.00025,-11.20161 -17.878025,-14.9364 -6.903687,-4.07287 -14.879578,-5.84799 -22.742722,-6.90381 -14.547149,-0.93083 -29.625397,1.70596 -42.434097,8.86221 C 20.375305,216.02243 11.25116,228.55006 8.407715,242.53528 5.486984,253.39414 6.548477,264.75449 7.702728,275.7858 2.939728,263.16989 1.02951,249.75554 0,236.38074 v -9.75518 C 1.675018,177.7271 22.040985,130.02357 54.811737,93.876007 66.07251,82.209015 78.635376,71.524826 93.035919,63.929321 Z"
         style="fill:#ffffff;fill-rule:nonzero;stroke:none;fill-opacity:1" />
      <path
         inkscape:connector-curvature="0"
         id="path18"
         d="m 262.5504,73.017014 c 17.16711,0.357864 34.46834,-0.07999 51.2047,-4.328965 -12.50658,44.014221 -25.34475,87.934881 -37.92801,131.927601 1.5023,-1.04569 2.93295,-2.19129 4.31784,-3.38961 15.52855,-13.84727 30.5321,-28.2796 46.29011,-41.87056 7.28193,-6.04101 14.78057,-12.76083 24.3579,-14.65728 4.38099,-1.07059 9.55049,-0.8133 12.97833,2.4492 7.9393,7.04172 7.13632,20.97525 -0.85088,27.69092 -4.19079,3.87616 -10.52383,4.45271 -15.83674,3.01018 -4.4523,-1.09998 -6.71874,-5.52884 -10.57321,-7.63236 -6.12981,-0.20888 -11.39176,3.78198 -16.00077,7.37587 -9.66268,8.05183 -18.97822,16.51912 -28.68583,24.5163 -0.22705,1.27301 1.0515,2.35182 1.48527,3.51866 9.71472,17.32281 19.31038,34.71286 29.02066,52.03825 3.44182,5.68166 7.00342,11.68727 12.6514,15.44892 3.09161,2.19947 7.47475,1.67373 10.25928,-0.77816 5.07406,-4.36757 8.88171,-10.12077 11.34265,-16.32449 2.9485,-0.0156 5.89918,-0.0228 8.85321,0.009 -3.89864,9.94538 -8.39513,19.86808 -15.39639,28.05582 -4.85019,6.02309 -11.93932,11.1944 -19.99523,10.9679 -6.83462,0.2684 -13.11601,-3.58455 -17.58436,-8.48302 -7.24207,-8.239 -12.23658,-18.08417 -17.5849,-27.57779 -7.65027,-13.56262 -15.20215,-27.17992 -22.83109,-40.75383 -6.83589,24.0609 -13.19433,48.2576 -20.14073,72.28767 -8.00597,-0.0357 -16.0112,-0.003 -24.01588,-0.0184 15.83445,-56.15518 31.40916,-112.38345 47.18362,-168.55559 2.4245,-9.22111 5.96382,-18.387417 5.78815,-28.057538 0.1239,-3.535232 -2.18952,-7.129135 -5.77794,-7.839981 -4.85162,-1.085556 -9.88251,-0.338379 -14.8056,-0.520401 0.77262,-2.832245 1.53384,-5.667343 2.27444,-8.508056 z"
         style="fill:none;stroke:#000000;stroke-width:0.1;stroke-linecap:butt;stroke-linejoin:miter;stroke-miterlimit:10" />
      <path
         inkscape:connector-curvature="0"
         id="path20"
         d="m 262.5504,73.017014 c 17.16711,0.357864 34.46834,-0.07999 51.2047,-4.328965 -12.50658,44.014221 -25.34475,87.934881 -37.92801,131.927601 1.5023,-1.04569 2.93295,-2.19129 4.31784,-3.38961 15.52855,-13.84727 30.5321,-28.2796 46.29011,-41.87056 7.28193,-6.04101 14.78057,-12.76083 24.3579,-14.65728 4.38099,-1.07059 9.55049,-0.8133 12.97833,2.4492 7.9393,7.04172 7.13632,20.97525 -0.85088,27.69092 -4.19079,3.87616 -10.52383,4.45271 -15.83674,3.01018 -4.4523,-1.09998 -6.71874,-5.52884 -10.57321,-7.63236 -6.12981,-0.20888 -11.39176,3.78198 -16.00077,7.37587 -9.66268,8.05183 -18.97822,16.51912 -28.68583,24.5163 -0.22705,1.27301 1.0515,2.35182 1.48527,3.51866 9.71472,17.32281 19.31038,34.71286 29.02066,52.03825 3.44182,5.68166 7.00342,11.68727 12.6514,15.44892 3.09161,2.19947 7.47475,1.67373 10.25928,-0.77816 5.07406,-4.36757 8.88171,-10.12077 11.34265,-16.32449 2.9485,-0.0156 5.89918,-0.0228 8.85321,0.009 -3.89864,9.94538 -8.39513,19.86808 -15.39639,28.05582 -4.85019,6.02309 -11.93932,11.1944 -19.99523,10.9679 -6.83462,0.2684 -13.11601,-3.58455 -17.58436,-8.48302 -7.24207,-8.239 -12.23658,-18.08417 -17.5849,-27.57779 -7.65027,-13.56262 -15.20215,-27.17992 -22.83109,-40.75383 -6.83589,24.0609 -13.19433,48.2576 -20.14073,72.28767 -8.00597,-0.0357 -16.0112,-0.003 -24.01588,-0.0184 15.83445,-56.15518 31.40916,-112.38345 47.18362,-168.55559 2.4245,-9.22111 5.96382,-18.387417 5.78815,-28.057538 0.1239,-3.535232 -2.18952,-7.129135 -5.77794,-7.839981 -4.85162,-1.085556 -9.88251,-0.338379 -14.8056,-0.520401 0.77262,-2.832245 1.53384,-5.667343 2.27444,-8.508056 z"
         style="fill:#ffffff;fill-rule:nonzero;stroke:none;fill-opacity:1" />
      <path
         inkscape:connector-curvature="0"
         id="path22"
         d="m 586.52339,73.056549 c 17.06754,0.204987 34.3208,0.112534 50.9267,-4.384827 -9.96628,36.359548 -20.67064,72.519038 -30.62842,108.880648 8.54486,-11.52364 17.78012,-23.11244 30.42345,-30.36971 9.42576,-5.56022 20.81715,-8.46925 31.69472,-6.32536 7.77035,1.47885 14.96881,6.53853 18.29801,13.81372 2.72725,5.67262 2.98297,12.15848 2.27404,18.31413 -1.65161,16.557 -8.56861,31.86139 -14.01532,47.39869 -4.73079,13.03379 -9.77063,25.96134 -14.1104,39.13302 -1.48932,5.19127 -3.58966,10.69306 -2.10222,16.12387 1.23245,3.8969 6.14569,4.26224 9.39189,2.91815 3.37586,-1.6893 6.43033,-4.13095 8.63014,-7.22088 4.75071,-6.13648 8.82402,-12.93067 10.75652,-20.51148 3.18529,0.006 6.37251,0.0109 9.56769,-0.0154 -2.89116,12.97034 -9.59454,25.36475 -20.16429,33.63176 -7.77216,6.16856 -18.62857,8.35893 -28.09658,5.2585 -8.13734,-2.78657 -13.27632,-11.2778 -13.52264,-19.64827 -0.57355,-8.81634 2.30632,-17.32288 4.80739,-25.64565 4.80403,-14.4517 10.5336,-28.57385 15.80003,-42.85958 5.06948,-13.0325 10.37126,-26.48674 10.38524,-40.67845 0.0642,-4.0051 -2.74872,-7.81981 -6.75195,-8.56099 -9.56964,-1.66855 -19.18067,2.41291 -26.58286,8.27285 -10.46634,8.27718 -18.14909,19.53694 -24.4624,31.16281 -10.02873,17.06908 -16.1693,36.05249 -21.37074,55.05485 -3.80376,13.23382 -7.52835,26.48989 -11.40752,39.70178 -8.12668,0.002 -16.25159,4.5e-4 -24.37518,8.4e-4 11.40295,-40.5 22.56652,-81.06734 33.91197,-121.58348 5.93393,-21.74144 12.25964,-43.37662 17.93472,-65.187596 0.9194,-4.556442 3.05184,-9.284088 1.35704,-13.921295 -0.39239,-2.463471 -2.88699,-3.658539 -5.12265,-3.897827 -5.3009,-0.814392 -10.68861,-0.257996 -16.02328,-0.39589 0.93161,-2.796524 1.76822,-5.623596 2.5769,-8.458923 z"
         style="fill:none;stroke:#000000;stroke-width:0.1;stroke-linecap:butt;stroke-linejoin:miter;stroke-miterlimit:10" />
      <path
         inkscape:connector-curvature="0"
         id="path24"
         d="m 586.52339,73.056549 c 17.06754,0.204987 34.3208,0.112534 50.9267,-4.384827 -9.96628,36.359548 -20.67064,72.519038 -30.62842,108.880648 8.54486,-11.52364 17.78012,-23.11244 30.42345,-30.36971 9.42576,-5.56022 20.81715,-8.46925 31.69472,-6.32536 7.77035,1.47885 14.96881,6.53853 18.29801,13.81372 2.72725,5.67262 2.98297,12.15848 2.27404,18.31413 -1.65161,16.557 -8.56861,31.86139 -14.01532,47.39869 -4.73079,13.03379 -9.77063,25.96134 -14.1104,39.13302 -1.48932,5.19127 -3.58966,10.69306 -2.10222,16.12387 1.23245,3.8969 6.14569,4.26224 9.39189,2.91815 3.37586,-1.6893 6.43033,-4.13095 8.63014,-7.22088 4.75071,-6.13648 8.82402,-12.93067 10.75652,-20.51148 3.18529,0.006 6.37251,0.0109 9.56769,-0.0154 -2.89116,12.97034 -9.59454,25.36475 -20.16429,33.63176 -7.77216,6.16856 -18.62857,8.35893 -28.09658,5.2585 -8.13734,-2.78657 -13.27632,-11.2778 -13.52264,-19.64827 -0.57355,-8.81634 2.30632,-17.32288 4.80739,-25.64565 4.80403,-14.4517 10.5336,-28.57385 15.80003,-42.85958 5.06948,-13.0325 10.37126,-26.48674 10.38524,-40.67845 0.0642,-4.0051 -2.74872,-7.81981 -6.75195,-8.56099 -9.56964,-1.66855 -19.18067,2.41291 -26.58286,8.27285 -10.46634,8.27718 -18.14909,19.53694 -24.4624,31.16281 -10.02873,17.06908 -16.1693,36.05249 -21.37074,55.05485 -3.80376,13.23382 -7.52835,26.48989 -11.40752,39.70178 -8.12668,0.002 -16.25159,4.5e-4 -24.37518,8.4e-4 11.40295,-40.5 22.56652,-81.06734 33.91197,-121.58348 5.93393,-21.74144 12.25964,-43.37662 17.93472,-65.187596 0.9194,-4.556442 3.05184,-9.284088 1.35704,-13.921295 -0.39239,-2.463471 -2.88699,-3.658539 -5.12265,-3.897827 -5.3009,-0.814392 -10.68861,-0.257996 -16.02328,-0.39589 0.93161,-2.796524 1.76822,-5.623596 2.5769,-8.458923 z"
         style="fill:#ffffff;fill-rule:nonzero;stroke:none;fill-opacity:1" />
      <path
         inkscape:connector-curvature="0"
         id="path26"
         d="m 465.58113,140.61339 c 12.53914,-1.5412 26.11437,0.49693 36.39543,8.26468 11.2867,8.63255 18.01403,22.20826 19.92653,36.12535 2.48027,17.87564 0.0679,36.43342 -6.68693,53.16104 -4.93265,11.87297 -12.24501,22.68909 -21.15857,31.93301 -10.39446,10.13242 -23.58432,17.74562 -38.06473,19.93184 -12.08757,2.01405 -25.31526,1.55724 -36.05292,-4.96503 -13.21196,-7.91648 -21.14651,-22.55258 -23.40918,-37.50514 -3.02147,-20.43414 0.25173,-41.83496 9.68759,-60.25505 8.13854,-15.65287 19.52469,-30.28851 35.14769,-39.01475 7.47322,-4.09876 15.73003,-6.77089 24.21509,-7.67595 z"
         style="fill:none;stroke:#000000;stroke-width:0.1;stroke-linecap:butt;stroke-linejoin:miter;stroke-miterlimit:10" />
      <path
         style="fill:#ffffff;fill-rule:nonzero;stroke:none;stroke-width:0.18492083;fill-opacity:1"
         d="M 134.49414 16.455078 C 133.90908 16.437195 133.32374 16.467074 132.75 16.539062 C 131.19702 16.708162 129.68419 17.208811 128.31641 17.974609 C 125.45701 19.604989 123.37432 22.339145 121.88477 25.263672 C 120.15777 28.705217 119.55832 32.703641 120.11133 36.521484 C 120.52545 39.315168 121.97837 42.05021 124.39648 43.529297 C 126.36174 44.747895 128.78182 44.833329 130.99414 44.457031 C 133.64442 44.048566 136.05849 42.625528 137.96094 40.732422 C 139.59234 39.00532 140.93119 36.983929 141.83398 34.765625 C 143.07029 31.640295 143.51059 28.173806 143.05664 24.833984 C 142.70661 22.233764 141.4759 19.69686 139.41016 18.083984 C 137.99889 16.99551 136.24933 16.508727 134.49414 16.455078 z M 134.52539 18 C 134.73327 18.00189 134.9384 18.021263 135.14258 18.050781 C 135.20136 18.059269 135.25819 18.073028 135.31641 18.083984 C 135.46197 18.111366 135.60536 18.145766 135.74609 18.189453 C 135.81147 18.209751 135.8754 18.231846 135.93945 18.255859 C 136.07487 18.306622 136.2058 18.367299 136.33398 18.435547 C 136.38894 18.464803 136.44465 18.490816 136.49805 18.523438 C 136.6755 18.631801 136.84689 18.754561 137.00391 18.902344 C 137.14577 19.035934 137.27463 19.178261 137.39258 19.328125 C 137.6284 19.627766 137.81934 19.95637 137.97461 20.304688 C 138.05224 20.478846 138.12032 20.657576 138.18164 20.839844 C 138.4277 21.569804 138.55243 22.352395 138.63867 23.103516 C 138.6691 23.541492 138.68746 23.979646 138.69336 24.417969 C 138.69926 24.85689 138.69342 25.294091 138.67578 25.732422 C 138.64056 26.607787 138.55993 27.481919 138.4375 28.349609 C 138.37628 28.783455 138.30401 29.215886 138.22266 29.646484 C 137.9789 30.9386 137.64758 32.214318 137.24219 33.460938 C 136.66269 35.176711 136.00186 36.884718 135.11133 38.458984 C 135.1109 38.459745 135.10981 38.460177 135.10938 38.460938 C 134.96135 38.722515 134.80787 38.980805 134.64648 39.234375 C 134.48418 39.489525 134.31587 39.738556 134.13867 39.984375 C 134.00239 40.177129 133.85737 40.364635 133.70508 40.546875 C 133.70475 40.547272 133.70541 40.548432 133.70508 40.548828 C 133.63277 40.635321 133.55229 40.715134 133.47656 40.798828 C 133.39275 40.891449 133.31247 40.987334 133.22461 41.076172 C 132.55606 41.75277 131.77268 42.313847 130.9082 42.677734 C 130.692 42.768702 130.46991 42.847136 130.24414 42.912109 C 130.01901 42.976837 129.78831 43.028152 129.55469 43.064453 C 128.47304 43.225049 127.26869 43.062936 126.37891 42.386719 C 126.37852 42.386428 126.37734 42.38701 126.37695 42.386719 C 126.24982 42.289997 126.13053 42.182748 126.01758 42.064453 C 125.86895 41.920432 125.73561 41.767152 125.61523 41.605469 C 125.49507 41.444258 125.38842 41.275303 125.29297 41.099609 C 124.72067 40.045584 124.56239 38.759172 124.45703 37.574219 C 124.369 35.607872 124.52662 33.637854 124.89062 31.707031 C 125.16363 30.258915 125.5534 28.832605 126.04297 27.445312 C 126.20616 26.982856 126.3796 26.525345 126.56445 26.072266 C 127.30032 24.213196 128.16677 22.377181 129.4043 20.806641 C 130.33222 19.65928 131.4998 18.636538 132.92578 18.220703 C 133.22989 18.135429 133.5498 18.079578 133.87305 18.042969 C 134.09012 18.018215 134.30684 17.998013 134.52539 18 z "
         transform="matrix(5.4637399,0,0,5.3522737,-259.72629,52.087591)"
         id="path28" />
      <path
         inkscape:connector-curvature="0"
         id="path30"
         d="m 758.09482,157.04572 c 10.01976,-10.02568 23.65037,-16.57372 37.93048,-16.90047 9.26009,-0.49942 18.82355,2.77109 25.29217,9.53952 6.88277,6.63049 10.90699,16.002 11.05109,25.55731 2.68408,-10.2093 5.85742,-20.28555 8.7955,-30.42508 8.15198,0.0363 16.30616,-0.005 24.46282,0.0242 -9.43731,33.39147 -19.10892,66.71456 -28.56867,100.09954 -2.56215,9.02863 -4.17447,18.46331 -3.40367,27.86773 0.34842,3.19853 1.62552,7.30664 5.17168,8.16208 5.22961,0.84323 8.74446,-4.00014 11.78572,-7.45116 5.51843,-7.7661 10.53329,-16.15576 12.92718,-25.45995 2.87917,-0.0593 5.76485,-0.0822 8.65799,-0.0597 -3.11416,10.57874 -7.76381,20.86323 -14.75836,29.46253 -4.29518,5.52921 -9.85245,10.40458 -16.62572,12.54947 -7.18539,2.35445 -15.92961,1.01993 -21.07856,-4.84361 -5.39171,-6.41512 -6.79335,-15.06096 -7.30977,-23.16811 -8.34601,12.40358 -20.0851,23.4375 -34.80879,27.46102 -10.50948,2.79368 -22.69167,2.37068 -31.68895,-4.33957 -10.9845,-8.35069 -16.38256,-21.96155 -18.46723,-35.21893 -2.34164,-17.21886 -0.61882,-35.01293 5.18356,-51.40587 5.73171,-15.23564 13.87862,-29.86878 25.45153,-41.45091 z"
         style="fill:none;stroke:#000000;stroke-width:0.1;stroke-linecap:butt;stroke-linejoin:miter;stroke-miterlimit:10" />
      <path
         style="fill:#ffffff;fill-rule:nonzero;stroke:none;stroke-width:0.18492083;fill-opacity:1"
         d="M 193.86523 16.451172 C 193.65286 16.440924 193.44037 16.441461 193.22852 16.453125 C 190.6149 16.514174 188.12097 17.736212 186.28711 19.609375 C 184.16898 21.773339 182.67795 24.508895 181.62891 27.355469 C 180.56693 30.418268 180.25111 33.741873 180.67969 36.958984 C 181.06123 39.435947 182.04816 41.978849 184.05859 43.539062 C 185.70532 44.792783 187.93587 44.871571 189.85938 44.349609 C 192.55418 43.597869 194.70294 41.536191 196.23047 39.21875 C 196.32499 40.733461 196.58154 42.35025 197.56836 43.548828 C 198.51075 44.644351 200.11068 44.893022 201.42578 44.453125 C 202.66546 44.052381 203.68263 43.14048 204.46875 42.107422 C 205.74893 40.500759 206.59995 38.58001 207.16992 36.603516 C 206.64041 36.599312 206.1129 36.604155 205.58594 36.615234 C 205.1478 38.353597 204.22876 39.920103 203.21875 41.371094 C 202.66212 42.01587 202.01965 42.921218 201.0625 42.763672 C 200.41346 42.603844 200.179 41.835883 200.11523 41.238281 C 199.97416 39.481192 200.26934 37.718127 200.73828 36.03125 C 202.46965 29.793718 204.23953 23.568823 205.9668 17.330078 C 204.47393 17.324622 202.98225 17.332954 201.49023 17.326172 C 200.95249 19.220606 200.37211 21.102296 199.88086 23.009766 C 199.85449 21.224485 199.11714 19.473192 197.85742 18.234375 C 196.82149 17.127859 195.35185 16.52291 193.86523 16.451172 z M 194.02539 18.652344 C 194.30113 18.643504 194.5761 18.665741 194.84766 18.707031 C 195.03539 18.735557 195.22187 18.768625 195.40234 18.824219 C 195.59894 18.884779 195.78609 18.968645 195.96875 19.064453 C 196.01094 19.08655 196.05249 19.108728 196.09375 19.132812 C 196.27494 19.238638 196.44958 19.357688 196.60938 19.503906 C 196.89375 19.765718 197.12942 20.063278 197.32617 20.384766 C 197.91643 21.34923 198.15406 22.533114 198.2832 23.652344 C 198.38888 24.865475 198.38807 26.080286 198.29297 27.287109 C 198.19787 28.493933 198.00806 29.692388 197.73633 30.873047 C 197.19287 33.234364 196.31987 35.524595 195.21484 37.662109 C 194.96261 38.132431 194.68693 38.602282 194.38281 39.054688 C 194.0787 39.507093 193.7464 39.942065 193.38086 40.339844 C 193.01532 40.73748 192.61621 41.097963 192.17969 41.404297 C 191.74354 41.710305 191.26847 41.96242 190.75195 42.140625 C 190.43711 42.247924 190.10531 42.331641 189.76758 42.384766 C 189.59929 42.411128 189.42811 42.430963 189.25781 42.441406 C 188.91593 42.462373 188.57336 42.449548 188.23828 42.396484 C 187.73566 42.316889 187.25179 42.146514 186.82031 41.863281 C 186.65322 41.755553 186.50197 41.632891 186.36523 41.5 C 186.22778 41.366411 186.10426 41.222932 185.99414 41.068359 C 185.55446 40.451167 185.32025 39.684568 185.18359 38.910156 C 185.11522 38.523186 185.07152 38.134817 185.03906 37.761719 C 185.00761 37.067755 185.00934 36.374833 185.03906 35.681641 C 185.06877 34.989271 185.12558 34.299617 185.20898 33.611328 C 185.29222 32.923442 185.40181 32.237265 185.53125 31.556641 C 185.53137 31.556016 185.53113 31.555312 185.53125 31.554688 C 185.66085 30.87344 185.81196 30.198061 185.98047 29.527344 C 186.56312 27.416572 187.24394 25.290768 188.26562 23.353516 C 188.60619 22.707765 188.98515 22.082959 189.41016 21.486328 C 189.86422 20.852368 190.4056 20.260564 191.02539 19.783203 C 191.33518 19.544457 191.66434 19.335057 192.01172 19.162109 C 192.35917 18.989211 192.72498 18.853034 193.10742 18.763672 C 193.40582 18.700326 193.71478 18.662301 194.02539 18.652344 z "
         transform="matrix(5.4637399,0,0,5.3522737,-259.72629,52.087591)"
         id="path32" />
      <circle
         r="1.5"
         cy="518.185"
         cx="618.29175"
         style="fill:#000000;stroke:none"
         id="path2636" />
      <path
         inkscape:connector-curvature="0"
         id="path2640"
         d="m -236.31632,331.0562 c 1351.17132,0 1351.17132,0 1351.17132,0"
         style="fill:none;fill-rule:evenodd;stroke:#ffffff;stroke-width:5.72544765px;stroke-linecap:butt;stroke-linejoin:miter;stroke-opacity:1" />
    </g>
    <text
       transform="scale(1.0105304,0.98957933)"
       id="text2642"
       y="-75.126167"
       x="5.5045242"
       style="font-style:normal;font-variant:normal;font-weight:normal;font-stretch:normal;font-size:11.11583424px;line-height:13.89479256px;font-family:'Gill Sans MT';-inkscape-font-specification:'Gill Sans MT';text-align:start;writing-mode:lr-tb;text-anchor:start;fill:#000000;fill-opacity:1;stroke:none;stroke-width:1px;stroke-linecap:butt;stroke-linejoin:miter;stroke-opacity:1"
       xml:space="preserve"><tspan
         style="font-style:normal;font-variant:normal;font-weight:normal;font-stretch:normal;font-size:10.58951092px;line-height:13.89479256px;font-family:'Gill Sans MT';-inkscape-font-specification:'Gill Sans MT';text-align:start;writing-mode:lr-tb;text-anchor:start;fill:#ffffff;fill-opacity:1"
         y="-75.126167"
         x="5.5045242"
         id="tspan2644"
         sodipodi:role="line">OPEN-SOURCE INTEGRATED LIBRARY SYSTEM</tspan></text>
  </g>
</svg>
